<?xml version='1.0' encoding='UTF-8' standalone='no'?>
<svg
  xmlns:dc="http://purl.org/dc/elements/1.1/"
  xmlns:cc="http://creativecommons.org/ns#"
  xmlns:rdf="http://www.w3.org/1999/02/22-rdf-syntax-ns#"
  xmlns:svg="http://www.w3.org/2000/svg"
  xmlns="http://www.w3.org/2000/svg"
  enable-background="new 0 0 154.08 37.908"
  viewBox="0 0 221.03998 60.04211"
  width="3.0699999in"
  x="0px"
  y="0px"
  height="0.83391815in"
  gorn="0"
  id="Ebene_1"
  xml:space="preserve"
  version="1.1">
  <metadata
    id="metadata206">
    <rdf:RDF>
      <cc:Work
        rdf:about="">
        <dc:format>image/svg+xml</dc:format>
        <dc:type
          rdf:resource="http://purl.org/dc/dcmitype/StillImage"
        />
        <dc:title/>
      </cc:Work>
    </rdf:RDF>
  </metadata>
  <defs
    id="defs204"
  />
  <desc
    id="desc2">
    <referenceFile>prefix0000_8dc61650ae2fa5c430e32ca65d474a4f_1_icon.svg</referenceFile>
  </desc>
  <g
    id="breadboard">
    <circle
      fill="none"
      stroke="#9a916c"
      stroke-width="0.25400001"
      r="3.0049999"
      cx="215.532"
      cy="29.216387"
      gorn="0.0.1"
      id="connector1pin"
    />
    <ellipse
      fill="none"
      stroke="#9a916c"
      stroke-width="0.25400001"
      ry="2.9879999"
      rx="3.0049999"
      cx="6.7319994"
      cy="29.233385"
      gorn="0.0.2"
      id="connector0pin"
    />
    <path
      fill="#605d5c"
      fill-opacity="1"
      fill-rule="evenodd"
      stroke="none"
      stroke-width="0.75002289"
      clip-rule="evenodd"
      image-rendering="optimizeQuality"
      shape-rendering="geometricPrecision"
      text-rendering="geometricPrecision"
      id="path1790"
      d="M 0.531316,59.510715 H 220.50868 V 0.531316 H 0.531316 Z"
    />
    <path
      fill="#24211d"
      fill-opacity="1"
      fill-rule="nonzero"
      stroke="none"
      stroke-width="0.75002289"
      clip-rule="evenodd"
      image-rendering="optimizeQuality"
      shape-rendering="geometricPrecision"
      text-rendering="geometricPrecision"
      id="path1792"
      d="M 0.531316,58.979399 H 220.50868 v 1.062708 H 0.531316 Z m 220.508674,0.531316 v 0.531392 h -0.53131 v -0.531392 z m -1.0627,0 V 0.531316 h 1.0627 V 59.510715 Z M 220.50868,0 h 0.53131 v 0.531316 h -0.53131 z m 0,1.062632 H 0.531316 V 0 H 220.50868 Z M 0,0.531316 V 0 h 0.531316 v 0.531316 z m 1.062707,0 V 59.510715 H 0 V 0.531316 Z M 0.531316,60.042107 H 0 v -0.531392 h 0.531316 z"
    />
    <path
      fill="#716f6e"
      fill-opacity="1"
      fill-rule="evenodd"
      stroke="none"
      stroke-width="0.75002289"
      clip-rule="evenodd"
      image-rendering="optimizeQuality"
      shape-rendering="geometricPrecision"
      text-rendering="geometricPrecision"
      id="path1794"
      d="M 5.313462,56.322668 H 215.72653 V 4.250755 H 5.313462 Z"
    />
    <path
      fill="none"
      fill-rule="evenodd"
      stroke="#24211d"
      stroke-width="0.53134626px"
      stroke-linecap="round"
      stroke-linejoin="round"
      stroke-opacity="1"
      stroke-dasharray="none"
      clip-rule="evenodd"
      image-rendering="optimizeQuality"
      shape-rendering="geometricPrecision"
      text-rendering="geometricPrecision"
      id="path1796"
      d="M 5.313462,56.322668 H 215.72653 V 4.250755 H 5.313462 Z"
      stroke-miterlimit="4"
    />
    <path
      fill="#24211d"
      fill-opacity="1"
      fill-rule="evenodd"
      stroke="none"
      stroke-width="0.75002289"
      clip-rule="evenodd"
      image-rendering="optimizeQuality"
      shape-rendering="geometricPrecision"
      text-rendering="geometricPrecision"
      id="path1798"
      d="m 188.6279,26.56731 c 2.65674,0 4.78208,1.594024 4.78208,4.250755 0,2.656731 -2.12534,4.782071 -4.78208,4.782071 -2.12541,0 -4.25075,-2.12534 -4.25075,-4.782071 0,-2.656731 2.12534,-4.250755 4.25075,-4.250755 z"
    />
    <path
      fill="#24211d"
      fill-opacity="1"
      fill-rule="nonzero"
      stroke="none"
      stroke-width="0.75002289"
      clip-rule="evenodd"
      image-rendering="optimizeQuality"
      shape-rendering="geometricPrecision"
      text-rendering="geometricPrecision"
      id="path1800"
      d="m 188.6279,26.035919 v 0 1.062708 0 z m 0,0 c 1.59403,0 2.65674,0.531391 3.71944,1.062708 l -0.53139,1.062707 c -1.0627,-1.062707 -2.12534,-1.062707 -3.18805,-1.062707 z m 3.71944,1.062708 c 1.06264,1.062707 1.59403,2.656731 1.59403,3.719438 h -1.06271 c 0,-1.062707 -0.53132,-2.125415 -1.06271,-2.656731 z m 1.59403,3.719438 v 0 h -1.06271 v 0 z m 0,0 v 0 h -1.06271 v 0 z m 0,0 c 0,1.594024 -0.53139,2.656731 -1.59403,3.719438 l -0.53139,-1.062707 c 0.53139,-0.531391 1.06271,-1.594024 1.06271,-2.656731 z m -2.12542,2.656731 v 0 0.531316 z m 0.53139,1.062707 c -1.0627,1.062633 -2.12541,1.594024 -3.71944,1.594024 V 35.06882 c 1.06271,0 2.12535,-0.531317 3.18805,-1.594024 z m -3.71944,1.594024 v 0 -1.062707 0 z m 0,0 v 0 -1.062707 0 z m 0,0 c -1.0627,0 -2.65673,-0.531391 -3.18812,-1.594024 l 0.53139,-1.062707 c 0.53132,1.062707 1.59403,1.594024 2.65673,1.594024 z m -3.18812,-1.594024 c -1.06263,-1.062707 -1.59402,-2.125414 -1.59402,-3.719438 h 1.06271 c 0,1.062707 0.53131,2.12534 1.0627,2.656731 z m -1.59402,-3.719438 v 0 h 1.06271 v 0 z m 0,0 v 0 h 1.06271 v 0 z m 0,0 c 0,-1.062707 0.53139,-2.656731 1.59402,-3.719438 l 0.53139,1.062707 c -0.53139,0.531316 -1.0627,1.594024 -1.0627,2.656731 z m 1.59402,-3.719438 v 0 0.531316 z m 0,0 c 0.53139,-0.531317 2.12542,-1.062708 3.18812,-1.062708 v 1.062708 c -1.0627,0 -2.12541,0 -2.65673,1.062707 z m 3.18812,-1.062708 v 0 1.062708 0 z"
    />
    <path
      fill="#ffffff"
      fill-opacity="1"
      fill-rule="evenodd"
      stroke="none"
      stroke-width="0.75002289"
      clip-rule="evenodd"
      image-rendering="optimizeQuality"
      shape-rendering="geometricPrecision"
      text-rendering="geometricPrecision"
      id="path1802"
      d="M 86.078103,6.907486 H 132.83655 V 0.531316 H 86.078103 Z"
    />
    <path
      fill="none"
      fill-rule="evenodd"
      stroke="#24211d"
      stroke-width="0.53134626px"
      stroke-linecap="round"
      stroke-linejoin="round"
      stroke-opacity="1"
      stroke-dasharray="none"
      clip-rule="evenodd"
      image-rendering="optimizeQuality"
      shape-rendering="geometricPrecision"
      text-rendering="geometricPrecision"
      id="path1804"
      d="M 86.078103,6.907486 H 132.83655 V 0.531316 H 86.078103 Z"
      stroke-miterlimit="4"
    />
    <path
      fill="#dddddc"
      fill-opacity="1"
      fill-rule="evenodd"
      stroke="none"
      stroke-width="0.75002289"
      clip-rule="evenodd"
      image-rendering="optimizeQuality"
      shape-rendering="geometricPrecision"
      text-rendering="geometricPrecision"
      id="path1806"
      d="M 5.844778,40.913598 H 20.191141 V 19.128434 H 5.844778 Z"
    />
    <path
      fill="none"
      fill-rule="evenodd"
      stroke="#24211d"
      stroke-width="0.53134626px"
      stroke-linecap="round"
      stroke-linejoin="round"
      stroke-opacity="1"
      stroke-dasharray="none"
      clip-rule="evenodd"
      image-rendering="optimizeQuality"
      shape-rendering="geometricPrecision"
      text-rendering="geometricPrecision"
      id="path1808"
      d="M 5.844778,40.913598 H 20.191141 V 19.128434 H 5.844778 Z"
      stroke-miterlimit="4"
    />
    <path
      fill="#dddddc"
      fill-opacity="1"
      fill-rule="evenodd"
      stroke="none"
      stroke-width="0.75002289"
      clip-rule="evenodd"
      image-rendering="optimizeQuality"
      shape-rendering="geometricPrecision"
      text-rendering="geometricPrecision"
      id="path1810"
      d="m 10.095533,41.976306 h 4.782146 v -1.062708 h -4.782146 z"
    />
    <path
      fill="none"
      fill-rule="evenodd"
      stroke="#24211d"
      stroke-width="0.53134626px"
      stroke-linecap="round"
      stroke-linejoin="round"
      stroke-opacity="1"
      stroke-dasharray="none"
      clip-rule="evenodd"
      image-rendering="optimizeQuality"
      shape-rendering="geometricPrecision"
      text-rendering="geometricPrecision"
      id="path1812"
      d="m 10.095533,41.976306 h 4.782146 v -1.062708 h -4.782146 z"
      stroke-miterlimit="4"
    />
    <path
      fill="#dddddc"
      fill-opacity="1"
      fill-rule="evenodd"
      stroke="none"
      stroke-width="0.75002289"
      clip-rule="evenodd"
      image-rendering="optimizeQuality"
      shape-rendering="geometricPrecision"
      text-rendering="geometricPrecision"
      id="path1814"
      d="m 5.844778,40.913598 h 4.250755 V 17.53441 H 5.844778 Z"
    />
    <path
      fill="none"
      fill-rule="evenodd"
      stroke="#24211d"
      stroke-width="0.53134626px"
      stroke-linecap="round"
      stroke-linejoin="round"
      stroke-opacity="1"
      stroke-dasharray="none"
      clip-rule="evenodd"
      image-rendering="optimizeQuality"
      shape-rendering="geometricPrecision"
      text-rendering="geometricPrecision"
      id="path1816"
      d="m 5.844778,40.913598 h 4.250755 V 17.53441 H 5.844778 Z"
      stroke-miterlimit="4"
    />
    <path
      fill="#dddddc"
      fill-opacity="1"
      fill-rule="evenodd"
      stroke="none"
      stroke-width="0.75002289"
      clip-rule="evenodd"
      image-rendering="optimizeQuality"
      shape-rendering="geometricPrecision"
      text-rendering="geometricPrecision"
      id="path1818"
      d="m 7.970193,21.253848 h 2.12534 v -2.125414 h -2.12534 z"
    />
    <path
      fill="none"
      fill-rule="evenodd"
      stroke="#24211d"
      stroke-width="0.53134626px"
      stroke-linecap="round"
      stroke-linejoin="round"
      stroke-opacity="1"
      stroke-dasharray="none"
      clip-rule="evenodd"
      image-rendering="optimizeQuality"
      shape-rendering="geometricPrecision"
      text-rendering="geometricPrecision"
      id="path1820"
      d="m 7.970193,21.253848 h 2.12534 v -2.125414 h -2.12534 z"
      stroke-miterlimit="4"
    />
    <path
      fill="#dddddc"
      fill-opacity="1"
      fill-rule="evenodd"
      stroke="none"
      stroke-width="0.75002289"
      clip-rule="evenodd"
      image-rendering="optimizeQuality"
      shape-rendering="geometricPrecision"
      text-rendering="geometricPrecision"
      id="path1822"
      d="m 7.970193,40.913598 h 2.12534 v -2.656731 h -2.12534 z"
    />
    <path
      fill="none"
      fill-rule="evenodd"
      stroke="#24211d"
      stroke-width="0.53134626px"
      stroke-linecap="round"
      stroke-linejoin="round"
      stroke-opacity="1"
      stroke-dasharray="none"
      clip-rule="evenodd"
      image-rendering="optimizeQuality"
      shape-rendering="geometricPrecision"
      text-rendering="geometricPrecision"
      id="path1824"
      d="m 7.970193,40.913598 h 2.12534 v -2.656731 h -2.12534 z"
      stroke-miterlimit="4"
    />
    <path
      fill="#dddddc"
      fill-opacity="1"
      fill-rule="evenodd"
      stroke="none"
      stroke-width="0.75002289"
      clip-rule="evenodd"
      image-rendering="optimizeQuality"
      shape-rendering="geometricPrecision"
      text-rendering="geometricPrecision"
      id="path1826"
      d="m 10.095533,40.913598 h 1.594098 V 19.128434 h -1.594098 z"
    />
    <path
      fill="none"
      fill-rule="evenodd"
      stroke="#24211d"
      stroke-width="0.53134626px"
      stroke-linecap="round"
      stroke-linejoin="round"
      stroke-opacity="1"
      stroke-dasharray="none"
      clip-rule="evenodd"
      image-rendering="optimizeQuality"
      shape-rendering="geometricPrecision"
      text-rendering="geometricPrecision"
      id="path1828"
      d="m 10.095533,40.913598 h 1.594098 V 19.128434 h -1.594098 z"
      stroke-miterlimit="4"
    />
    <path
      fill="#dddddc"
      fill-opacity="1"
      fill-rule="evenodd"
      stroke="none"
      stroke-width="0.75002289"
      clip-rule="evenodd"
      image-rendering="optimizeQuality"
      shape-rendering="geometricPrecision"
      text-rendering="geometricPrecision"
      id="path1830"
      d="M 5.844778,40.913598 H 6.37617 V 19.128434 H 5.844778 Z"
    />
    <path
      fill="none"
      fill-rule="evenodd"
      stroke="#24211d"
      stroke-width="0.53134626px"
      stroke-linecap="round"
      stroke-linejoin="round"
      stroke-opacity="1"
      stroke-dasharray="none"
      clip-rule="evenodd"
      image-rendering="optimizeQuality"
      shape-rendering="geometricPrecision"
      text-rendering="geometricPrecision"
      id="path1832"
      d="M 5.844778,40.913598 H 6.37617 V 19.128434 H 5.844778 Z"
      stroke-miterlimit="4"
    />
    <path
      fill="#dddddc"
      fill-opacity="1"
      fill-rule="evenodd"
      stroke="none"
      stroke-width="0.75002289"
      clip-rule="evenodd"
      image-rendering="optimizeQuality"
      shape-rendering="geometricPrecision"
      text-rendering="geometricPrecision"
      id="path1834"
      d="m 214.66382,41.444989 h -14.34628 v -21.78524 h 14.34628 z"
    />
    <path
      fill="#24211d"
      fill-opacity="1"
      fill-rule="nonzero"
      stroke="none"
      stroke-width="0.75002289"
      clip-rule="evenodd"
      image-rendering="optimizeQuality"
      shape-rendering="geometricPrecision"
      text-rendering="geometricPrecision"
      id="path1836"
      d="m 214.66382,41.444989 h -14.34628 v -0.531391 h 14.34628 z m -14.34628,0 h -0.5314 v 0 z m -0.5314,0 v -21.78524 h 1.06271 v 21.78524 z m 0,-21.78524 v -0.531315 h 0.5314 v 0.531315 z m 0.5314,-0.531315 h 14.34628 v 1.062707 h -14.34628 z m 14.34628,0 h 0.53139 v 0.531315 h -0.53139 z m 0.53139,0.531315 v 21.78524 h -1.0627 v -21.78524 z m 0,21.78524 v 0 h -0.53139 v 0 z"
    />
    <path
      fill="#dddddc"
      fill-opacity="1"
      fill-rule="evenodd"
      stroke="none"
      stroke-width="0.75002289"
      clip-rule="evenodd"
      image-rendering="optimizeQuality"
      shape-rendering="geometricPrecision"
      text-rendering="geometricPrecision"
      id="path1838"
      d="M 210.41307,18.065726 H 205.631 v 1.594023 h 4.78207 z"
    />
    <path
      fill="#24211d"
      fill-opacity="1"
      fill-rule="nonzero"
      stroke="none"
      stroke-width="0.75002289"
      clip-rule="evenodd"
      image-rendering="optimizeQuality"
      shape-rendering="geometricPrecision"
      text-rendering="geometricPrecision"
      id="path1840"
      d="M 210.41307,18.597117 H 205.631 V 17.53441 h 4.78207 z m -5.31346,-0.531391 V 17.53441 h 0.53139 v 0.531316 z m 0.53139,0 v 1.594023 h -0.53139 v -1.594023 z m 0,2.125415 h -0.53139 v -0.531392 h 0.53139 z m 0,-1.062707 h 4.78207 v 1.062707 H 205.631 Z m 5.31346,0.531315 v 0.531392 h -0.53139 v -0.531392 z m -1.06271,0 v -1.594023 h 1.06271 v 1.594023 z m 0.53132,-2.125339 h 0.53139 v 0.531316 h -0.53139 z"
    />
    <path
      fill="#dddddc"
      fill-opacity="1"
      fill-rule="evenodd"
      stroke="none"
      stroke-width="0.75002289"
      clip-rule="evenodd"
      image-rendering="optimizeQuality"
      shape-rendering="geometricPrecision"
      text-rendering="geometricPrecision"
      id="path1842"
      d="m 214.66382,42.507697 h -4.25075 V 19.659749 h 4.25075 z"
    />
    <path
      fill="#24211d"
      fill-opacity="1"
      fill-rule="nonzero"
      stroke="none"
      stroke-width="0.75002289"
      clip-rule="evenodd"
      image-rendering="optimizeQuality"
      shape-rendering="geometricPrecision"
      text-rendering="geometricPrecision"
      id="path1844"
      d="m 214.66382,43.039013 h -4.25075 v -1.062707 h 4.25075 z m -4.25075,0 h -0.53132 v -0.531316 h 0.53132 z m -0.53132,-0.531316 V 19.659749 h 1.06271 v 22.847948 z m 0,-22.847948 v -0.531315 h 0.53132 v 0.531315 z m 0.53132,-0.531315 h 4.25075 v 1.062707 h -4.25075 z m 4.25075,0 h 0.53139 v 0.531315 h -0.53139 z m 0.53139,0.531315 v 22.847948 h -1.0627 V 19.659749 Z m 0,22.847948 v 0.531316 h -0.53139 v -0.531316 z"
    />
    <path
      fill="#dddddc"
      fill-opacity="1"
      fill-rule="evenodd"
      stroke="none"
      stroke-width="0.75002289"
      clip-rule="evenodd"
      image-rendering="optimizeQuality"
      shape-rendering="geometricPrecision"
      text-rendering="geometricPrecision"
      id="path1846"
      d="m 212.53848,41.444989 h -2.12541 v -2.656731 h 2.12541 z"
    />
    <path
      fill="#24211d"
      fill-opacity="1"
      fill-rule="nonzero"
      stroke="none"
      stroke-width="0.75002289"
      clip-rule="evenodd"
      image-rendering="optimizeQuality"
      shape-rendering="geometricPrecision"
      text-rendering="geometricPrecision"
      id="path1848"
      d="m 212.53848,41.444989 h -2.12541 v -0.531391 h 2.12541 z m -2.12541,0 h -0.53132 v 0 z m -0.53132,0 v -2.656731 h 1.06271 v 2.656731 z m 0,-2.656731 v -0.531391 h 0.53132 v 0.531391 z m 0.53132,-0.531391 h 2.12541 v 1.062708 h -2.12541 z m 2.12541,0 h 0.53132 v 0.531391 h -0.53132 z m 0.53132,0.531391 v 2.656731 h -1.06271 v -2.656731 z m 0,2.656731 v 0 h -0.53132 v 0 z"
    />
    <path
      fill="#dddddc"
      fill-opacity="1"
      fill-rule="evenodd"
      stroke="none"
      stroke-width="0.75002289"
      clip-rule="evenodd"
      image-rendering="optimizeQuality"
      shape-rendering="geometricPrecision"
      text-rendering="geometricPrecision"
      id="path1850"
      d="m 212.00709,19.659749 h -1.59402 v 2.125416 h 1.59402 z"
    />
    <path
      fill="#24211d"
      fill-opacity="1"
      fill-rule="nonzero"
      stroke="none"
      stroke-width="0.75002289"
      clip-rule="evenodd"
      image-rendering="optimizeQuality"
      shape-rendering="geometricPrecision"
      text-rendering="geometricPrecision"
      id="path1852"
      d="m 212.00709,20.191141 h -1.59402 v -1.062707 h 1.59402 z m -2.12534,-0.531392 v -0.531315 h 0.53132 v 0.531315 z m 1.06271,0 v 2.125416 h -1.06271 v -2.125416 z m -0.53139,2.656732 h -0.53132 v -0.531316 h 0.53132 z m 0,-1.062633 h 1.59402 v 1.062633 h -1.59402 z m 2.12541,0.531317 v 0.531316 h -0.53139 v -0.531316 z m -1.0627,0 v -2.125416 h 1.0627 v 2.125416 z m 0.53131,-2.656731 h 0.53139 v 0.531315 h -0.53139 z"
    />
    <path
      fill="#dddddc"
      fill-opacity="1"
      fill-rule="evenodd"
      stroke="none"
      stroke-width="0.75002289"
      clip-rule="evenodd"
      image-rendering="optimizeQuality"
      shape-rendering="geometricPrecision"
      text-rendering="geometricPrecision"
      id="path1854"
      d="m 210.41307,41.444989 h -2.12534 v -21.78524 h 2.12534 z"
    />
    <path
      fill="#24211d"
      fill-opacity="1"
      fill-rule="nonzero"
      stroke="none"
      stroke-width="0.75002289"
      clip-rule="evenodd"
      image-rendering="optimizeQuality"
      shape-rendering="geometricPrecision"
      text-rendering="geometricPrecision"
      id="path1856"
      d="m 210.41307,41.444989 h -2.12534 v -0.531391 h 2.12534 z m -2.12534,0 h -0.53139 v 0 z m -0.53139,0 v -21.78524 h 1.0627 v 21.78524 z m 0,-21.78524 v -0.531315 h 0.53139 v 0.531315 z m 0.53139,-0.531315 h 2.12534 v 1.062707 h -2.12534 z m 2.12534,0 h 0.53139 v 0.531315 h -0.53139 z m 0.53139,0.531315 v 21.78524 h -1.06271 v -21.78524 z m 0,21.78524 v 0 h -0.53139 v 0 z"
    />
    <path
      fill="#dddddc"
      fill-opacity="1"
      fill-rule="evenodd"
      stroke="none"
      stroke-width="0.75002289"
      clip-rule="evenodd"
      image-rendering="optimizeQuality"
      shape-rendering="geometricPrecision"
      text-rendering="geometricPrecision"
      id="path1858"
      d="m 213.60119,41.444989 h 1.06263 v -21.78524 h -1.06263 z"
    />
    <path
      fill="#24211d"
      fill-opacity="1"
      fill-rule="nonzero"
      stroke="none"
      stroke-width="0.75002289"
      clip-rule="evenodd"
      image-rendering="optimizeQuality"
      shape-rendering="geometricPrecision"
      text-rendering="geometricPrecision"
      id="path1860"
      d="m 213.60119,40.913598 h 1.06263 v 0.531391 h -1.06263 z m 1.59402,0.531391 v 0 h -0.53139 v 0 z m -1.0627,0 v -21.78524 h 1.0627 v 21.78524 z m 0.53131,-22.316555 h 0.53139 v 0.531315 h -0.53139 z m 0,1.062707 h -1.06263 v -1.062707 h 1.06263 z m -1.59402,-0.531392 v -0.531315 h 0.53139 v 0.531315 z m 1.06271,0 v 21.78524 h -1.06271 v -21.78524 z m -0.53132,21.78524 h -0.53139 v 0 z"
    />
    <path
      fill="#ffffff"
      fill-opacity="1"
      fill-rule="evenodd"
      stroke="none"
      stroke-width="0.75002289"
      clip-rule="evenodd"
      image-rendering="optimizeQuality"
      shape-rendering="geometricPrecision"
      text-rendering="geometricPrecision"
      id="path1862"
      d="M 86.078103,59.510715 H 131.77385 V 53.665937 H 86.078103 Z"
    />
    <path
      fill="none"
      fill-rule="evenodd"
      stroke="#24211d"
      stroke-width="0.53134626px"
      stroke-linecap="round"
      stroke-linejoin="round"
      stroke-opacity="1"
      stroke-dasharray="none"
      clip-rule="evenodd"
      image-rendering="optimizeQuality"
      shape-rendering="geometricPrecision"
      text-rendering="geometricPrecision"
      id="path1864"
      d="M 86.078103,59.510715 H 131.77385 V 53.665937 H 86.078103 Z"
      stroke-miterlimit="4"
    />
    <path
      fill="none"
      fill-rule="evenodd"
      stroke="#24211d"
      stroke-width="0.53134626px"
      stroke-linecap="round"
      stroke-linejoin="round"
      stroke-opacity="1"
      stroke-dasharray="none"
      clip-rule="evenodd"
      image-rendering="optimizeQuality"
      shape-rendering="geometricPrecision"
      text-rendering="geometricPrecision"
      id="path1866"
      d="m 37.725553,59.510715 h 17.00309 v -3.188047 h -17.00309 z"
      stroke-miterlimit="4"
    />
    <path
      fill="none"
      fill-rule="evenodd"
      stroke="#24211d"
      stroke-width="0.53134626px"
      stroke-linecap="round"
      stroke-linejoin="round"
      stroke-opacity="1"
      stroke-dasharray="none"
      clip-rule="evenodd"
      image-rendering="optimizeQuality"
      shape-rendering="geometricPrecision"
      text-rendering="geometricPrecision"
      id="path1868"
      d="M 37.194235,4.250755 H 55.259963 V 0.531316 H 37.194235 Z"
      stroke-miterlimit="4"
    />
    <path
      fill="none"
      fill-rule="evenodd"
      stroke="#24211d"
      stroke-width="0.53134626px"
      stroke-linecap="round"
      stroke-linejoin="round"
      stroke-opacity="1"
      stroke-dasharray="none"
      clip-rule="evenodd"
      image-rendering="optimizeQuality"
      shape-rendering="geometricPrecision"
      text-rendering="geometricPrecision"
      id="path1870"
      d="m 29.755358,4.250755 h 7.438877 V 0.531316 h -7.438877 z"
      stroke-miterlimit="4"
    />
    <path
      fill="none"
      fill-rule="evenodd"
      stroke="#24211d"
      stroke-width="0.53134626px"
      stroke-linecap="round"
      stroke-linejoin="round"
      stroke-opacity="1"
      stroke-dasharray="none"
      clip-rule="evenodd"
      image-rendering="optimizeQuality"
      shape-rendering="geometricPrecision"
      text-rendering="geometricPrecision"
      id="path1872"
      d="m 29.755358,59.510715 h 7.970195 v -3.188047 h -7.970195 z"
      stroke-miterlimit="4"
    />
    <path
      fill="none"
      fill-rule="evenodd"
      stroke="#24211d"
      stroke-width="0.53134626px"
      stroke-linecap="round"
      stroke-linejoin="round"
      stroke-opacity="1"
      stroke-dasharray="none"
      clip-rule="evenodd"
      image-rendering="optimizeQuality"
      shape-rendering="geometricPrecision"
      text-rendering="geometricPrecision"
      id="path1874"
      d="m 162.59191,59.510715 h 26.56731 v -3.188047 h -26.56731 z"
      stroke-miterlimit="4"
    />
    <path
      fill="none"
      fill-rule="evenodd"
      stroke="#24211d"
      stroke-width="0.53134626px"
      stroke-linecap="round"
      stroke-linejoin="round"
      stroke-opacity="1"
      stroke-dasharray="none"
      clip-rule="evenodd"
      image-rendering="optimizeQuality"
      shape-rendering="geometricPrecision"
      text-rendering="geometricPrecision"
      id="path1876"
      d="m 180.12632,59.510715 h 9.0329 v -3.188047 h -9.0329 z"
      stroke-miterlimit="4"
    />
    <path
      fill="none"
      fill-rule="evenodd"
      stroke="#24211d"
      stroke-width="0.53134626px"
      stroke-linecap="round"
      stroke-linejoin="round"
      stroke-opacity="1"
      stroke-dasharray="none"
      clip-rule="evenodd"
      image-rendering="optimizeQuality"
      shape-rendering="geometricPrecision"
      text-rendering="geometricPrecision"
      id="path1878"
      d="M 162.59191,4.250755 H 188.6279 V 0.531316 h -26.03599 z"
      stroke-miterlimit="4"
    />
    <path
      fill="none"
      fill-rule="evenodd"
      stroke="#24211d"
      stroke-width="0.53134626px"
      stroke-linecap="round"
      stroke-linejoin="round"
      stroke-opacity="1"
      stroke-dasharray="none"
      clip-rule="evenodd"
      image-rendering="optimizeQuality"
      shape-rendering="geometricPrecision"
      text-rendering="geometricPrecision"
      id="path1880"
      d="m 180.12632,4.250755 h 8.50158 V 0.531316 h -8.50158 z"
      stroke-miterlimit="4"
    />
    <path
      fill="#24211d"
      fill-opacity="1"
      fill-rule="evenodd"
      stroke="none"
      stroke-width="0.75002289"
      clip-rule="evenodd"
      image-rendering="optimizeQuality"
      shape-rendering="geometricPrecision"
      text-rendering="geometricPrecision"
      id="path1882"
      d="m 31.880772,26.56731 c 2.12534,0 4.250755,1.594024 4.250755,4.250755 0,2.656731 -2.125415,4.782071 -4.250755,4.782071 -2.656731,0 -4.782145,-2.12534 -4.782145,-4.782071 0,-2.656731 2.125414,-4.250755 4.782145,-4.250755 z"
    />
    <path
      fill="#24211d"
      fill-opacity="1"
      fill-rule="nonzero"
      stroke="none"
      stroke-width="0.75002289"
      clip-rule="evenodd"
      image-rendering="optimizeQuality"
      shape-rendering="geometricPrecision"
      text-rendering="geometricPrecision"
      id="path1884"
      d="m 31.880772,26.035919 v 0 1.062708 0 z m 0,0 c 1.062708,0 2.656731,0.531391 3.188048,1.062708 l -0.531317,1.062707 C 34.006112,27.098627 32.94348,27.098627 31.880772,27.098627 Z m 2.656731,2.125415 v 0 l 0.531317,-0.531391 z m 0.531317,-1.062707 c 1.062707,1.062707 1.594023,2.656731 1.594023,3.719438 h -1.062632 c 0,-1.062707 -0.531391,-2.125415 -1.062708,-2.656731 z m 1.594023,3.719438 v 0 h -1.062632 v 0 z m 0,0 v 0 h -1.062632 v 0 z m 0,0 c 0,1.594024 -0.531316,2.656731 -1.594023,3.719438 l -0.531317,-1.062707 c 0.531317,-0.531391 1.062708,-1.594024 1.062708,-2.656731 z m -1.594023,3.719438 c -0.531317,1.062633 -2.12534,1.594024 -3.188048,1.594024 V 35.06882 c 1.062708,0 2.12534,-0.531317 2.656731,-1.594024 z m -3.188048,1.594024 v 0 -1.062707 0 z m 0,0 v 0 -1.062707 0 z m 0,0 c -1.594023,0 -2.656731,-0.531391 -3.719438,-1.594024 l 0.531316,-1.062707 c 1.062708,1.062707 2.125415,1.594024 3.188122,1.594024 z m -3.719438,-1.594024 v 0 l 0.531316,-0.531391 z m 0,0 C 27.098627,33.474796 26.56731,32.412089 26.56731,30.818065 h 1.062708 c 0,1.062707 0.531316,2.12534 1.062632,2.656731 z M 26.56731,30.818065 v 0 h 1.062708 v 0 z m 0,0 v 0 h 1.062708 v 0 z m 0,0 c 0,-1.062707 0.531317,-2.656731 1.594024,-3.719438 l 0.531316,1.062707 c -0.531316,0.531316 -1.062632,1.594024 -1.062632,2.656731 z m 1.594024,-3.719438 v 0 l 0.531316,0.531316 z m 0,0 c 1.062707,-0.531317 2.125415,-1.062708 3.719438,-1.062708 v 1.062708 c -1.062707,0 -2.125414,0 -3.188122,1.062707 z m 3.719438,-1.062708 v 0 1.062708 0 z"
    />
    <path
      fill="#605d5c"
      fill-opacity="1"
      fill-rule="evenodd"
      stroke="none"
      stroke-width="0.75002289"
      clip-rule="evenodd"
      image-rendering="optimizeQuality"
      shape-rendering="geometricPrecision"
      text-rendering="geometricPrecision"
      id="path1886"
      d="M 86.078103,3.719363 H 132.83655 V 0.531316 H 86.078103 Z"
    />
    <path
      fill="none"
      fill-rule="evenodd"
      stroke="#24211d"
      stroke-width="0.53134626px"
      stroke-linecap="round"
      stroke-linejoin="round"
      stroke-opacity="1"
      stroke-dasharray="none"
      clip-rule="evenodd"
      image-rendering="optimizeQuality"
      shape-rendering="geometricPrecision"
      text-rendering="geometricPrecision"
      id="path1888"
      d="M 86.078103,3.719363 H 132.83655 V 0.531316 H 86.078103 Z"
      stroke-miterlimit="4"
    />
    <path
      fill="#605d5c"
      fill-opacity="1"
      fill-rule="evenodd"
      stroke="none"
      stroke-width="0.75002289"
      clip-rule="evenodd"
      image-rendering="optimizeQuality"
      shape-rendering="geometricPrecision"
      text-rendering="geometricPrecision"
      id="path1890"
      d="M 86.078103,59.510715 H 131.77385 V 56.322668 H 86.078103 Z"
    />
    <path
      fill="none"
      fill-rule="evenodd"
      stroke="#24211d"
      stroke-width="0.53134626px"
      stroke-linecap="round"
      stroke-linejoin="round"
      stroke-opacity="1"
      stroke-dasharray="none"
      clip-rule="evenodd"
      image-rendering="optimizeQuality"
      shape-rendering="geometricPrecision"
      text-rendering="geometricPrecision"
      id="path1892"
      d="M 86.078103,59.510715 H 131.77385 V 56.322668 H 86.078103 Z"
      stroke-miterlimit="4"
    />
    <text
      fill="#000000"
      fill-opacity="1"
      fill-rule="evenodd"
      stroke="none"
      stroke-width="0.75002289"
      font-family="OCRA"
      text-anchor="start"
      clip-rule="evenodd"
      image-rendering="optimizeQuality"
      shape-rendering="geometricPrecision"
      text-rendering="geometricPrecision"
      id="text1898"
      y="37.19421"
      x="40.913662"
      xml:space="preserve"
      font-style="normal"
      font-variant="normal"
      font-weight="700"
      font-size="18.04742622px"
      line-height="125%"
      text-align="start"
      letter-spacing="0px"
      word-spacing="0px">
      <tspan
        stroke-width="0.75002289"
        id="tspan1896"
        y="37.19421"
        x="40.913662">
        <tspan
          fill="#24211d"
          stroke-width="0.75002289"
          font-family="OCRA"
          id="tspan1894"
          dy="0"
          dx="0"
          font-style="normal"
          font-variant="normal"
          font-weight="700"
          font-size="18.04742622">+</tspan>
      </tspan>
    </text>
    <text
      fill="#000000"
      fill-opacity="1"
      fill-rule="evenodd"
      stroke="none"
      stroke-width="0.75002289"
      font-family="OCRA"
      text-anchor="start"
      clip-rule="evenodd"
      image-rendering="optimizeQuality"
      shape-rendering="geometricPrecision"
      text-rendering="geometricPrecision"
      id="text1904"
      y="35.600227"
      x="172.15613"
      xml:space="preserve"
      font-style="normal"
      font-variant="normal"
      font-weight="700"
      font-size="18.04742622px"
      line-height="125%"
      text-align="start"
      letter-spacing="0px"
      word-spacing="0px">
      <tspan
        stroke-width="0.75002289"
        id="tspan1902"
        y="35.600227"
        x="172.15613">
        <tspan
          fill="#24211d"
          stroke-width="0.75002289"
          font-family="OCRA"
          id="tspan1900"
          dy="0"
          dx="0"
          font-style="normal"
          font-variant="normal"
          font-weight="700"
          font-size="18.04742622">-</tspan>
      </tspan>
    </text>
    <path
      fill="#fa9d99"
      fill-opacity="1"
      fill-rule="evenodd"
      stroke="none"
      stroke-width="0.75002289"
      clip-rule="evenodd"
      image-rendering="optimizeQuality"
      shape-rendering="geometricPrecision"
      text-rendering="geometricPrecision"
      id="path1906"
      d="M 20.191141,56.322668 H 200.31754 V 4.250755 H 20.191141 Z"
    />
    <path
      fill="none"
      fill-rule="evenodd"
      stroke="#24211d"
      stroke-width="0.53134626px"
      stroke-linecap="round"
      stroke-linejoin="round"
      stroke-opacity="1"
      stroke-dasharray="none"
      clip-rule="evenodd"
      image-rendering="optimizeQuality"
      shape-rendering="geometricPrecision"
      text-rendering="geometricPrecision"
      id="path1908"
      d="M 20.191141,56.322668 H 200.31754 V 4.250755 H 20.191141 Z"
      stroke-miterlimit="4"
    />
    <path
      fill="none"
      fill-rule="evenodd"
      stroke="#24211d"
      stroke-width="0.53134626px"
      stroke-linecap="round"
      stroke-linejoin="round"
      stroke-opacity="1"
      stroke-dasharray="none"
      clip-rule="evenodd"
      image-rendering="optimizeQuality"
      shape-rendering="geometricPrecision"
      text-rendering="geometricPrecision"
      id="path1932"
      d="M 23.379188,4.250755 V 56.322668"
      stroke-miterlimit="4"
    />
    <path
      fill="none"
      fill-rule="evenodd"
      stroke="#24211d"
      stroke-width="0.53134626px"
      stroke-linecap="round"
      stroke-linejoin="round"
      stroke-opacity="1"
      stroke-dasharray="none"
      clip-rule="evenodd"
      image-rendering="optimizeQuality"
      shape-rendering="geometricPrecision"
      text-rendering="geometricPrecision"
      id="path1934"
      d="M 196.0667,4.250755 V 56.853984"
      stroke-miterlimit="4"
    />
  </g>
  <text
    id="text90"
    y="26.624708"
    x="70.211296"
    font-size="18"
    gorn="0.1.10"
    font-family="OCRA"
    text-anchor="start"
    fill="#000000"
    stroke="none"
    stroke-width="0.072">18650</text>
  <text
    gorn="0.1.10"
    font-size="18"
    x="57.952915"
    y="48.417381"
    id="text92"
    font-family="OCRA"
    text-anchor="start"
    fill="#000000"
    stroke="none"
    stroke-width="0.072">BATTERY</text>
  <text
    gorn="0.1.10"
    font-size="18"
    x="178.9801"
    y="37.131889"
    id="text94"
    font-family="OCRA"
    text-anchor="start"
    fill="#000000"
    stroke="none"
    stroke-width="0.072">-</text>
  <text
    id="text96"
    y="35.964424"
    x="25.653069"
    font-size="18"
    gorn="0.1.10"
    font-family="OCRA"
    text-anchor="start"
    fill="#000000"
    stroke="none"
    stroke-width="0.072">+</text>
</svg>
